<svg xmlns="http://www.w3.org/2000/svg" class="icon icon-tabler icon-tabler-file-info" width="250px" height="250px" viewBox="0 0 24 24" stroke-width="1.62" stroke="rgba(1, 1, 1, 1)" fill="none" stroke-linecap="round" stroke-linejoin="round"><rect x="0" y="0" width="100%" height="100%" stroke="none" stroke-width="0" fill="rgba(255, 0, 0, 1)" rx="5" ry="5"/><g transform="translate(2.16, 2.16) scale(0.82)"><path stroke="none" d="M0 0h24v24H0z" fill="none"/><path d="M14 3v4a1 1 0 0 0 1 1h4"/><path d="M17 21h-10a2 2 0 0 1 -2 -2v-14a2 2 0 0 1 2 -2h7l5 5v11a2 2 0 0 1 -2 2z"/><path d="M11 14h1v4h1"/><path d="M12 11h.01"/></g>
  
  
  
  
  
</svg>